# xmcd CD database file
#
# Track frame offsets:
#	150
#	11841
#	22892
#	33994
#	44845
#	56281
#	69231
#	83283
#	94674
#	106779
#	119002
#	131032
#	142086
#	154234
#	164843
#	176408
#	186122
#	199950
#	213286
#	223985
#	236228
#	247683
#	258536
#	271023
#
# Disc length: 3785 seconds
#
# Revision: 2
# Processed by: cddbd v1.5.2PL0 Copyright (c) Steve Scherf et al.
# Submitted via: CDex 1.77
#
DISCID=590ec718
DTITLE=jim reeves - Vol.2 - Six Classic Albums - CD 3
DYEAR=2014
DGENRE=Country
TTITLE0=have you ever been lonely
TTITLE1=there's always me
TTITLE2=just walking in the rain
TTITLE3=be honest with me
TTITLE4=welcome to my world
TTITLE5=it's no sin
TTITLE6=i fall to pieces
TTITLE7=am i that easy to forget
TTITLE8=blue skies
TTITLE9=all dressed up and lonely
TTITLE10=wild rose
TTITLE11=i'm a fool to care
TTITLE12=we thank thee
TTITLE13=where we'll never grow old
TTITLE14=i'll fly away
TTITLE15=across the bridge
TTITLE16=have thine own way lord
TTITLE17=my cathedral
TTITLE18=the night watch
TTITLE19=i'd rather have jesus
TTITLE20=where do i go from here
TTITLE21=take my hand precious lord
TTITLE22=this world is not my home
TTITLE23=oh gentle shepherd
EXTD=YEAR: 2014
EXTT0=
EXTT1=
EXTT2=
EXTT3=
EXTT4=
EXTT5=
EXTT6=
EXTT7=
EXTT8=
EXTT9=
EXTT10=
EXTT11=
EXTT12=
EXTT13=
EXTT14=
EXTT15=
EXTT16=
EXTT17=
EXTT18=
EXTT19=
EXTT20=
EXTT21=
EXTT22=
EXTT23=
PLAYORDER=
